<svg width="28px" height="28px" viewBox="0 0 24 24" fill="white" xmlns="http://www.w3.org/2000/svg"><path fill-rule="evenodd" clip-rule="evenodd" d="M17 7c0-2.76-2.24-5-5-5S7 4.24 7 7s2.24 5 5 5 5-2.24 5-5Zm-5 3c-1.65 0-3-1.35-3-3s1.35-3 3-3 3 1.35 3 3-1.35 3-3 3Z" fill="white"></path><path d="M4 19c0-2.21 1.79-4 4-4h3c.55 0 1-.45 1-1s-.45-1-1-1H8c-3.31 0-6 2.69-6 6 0 1.65 1.35 3 3 3h6c.55 0 1-.45 1-1s-.45-1-1-1H5c-.55 0-1-.45-1-1ZM18.5 14c0-.55-.45-1-1-1s-1 .45-1 1v2.5H14c-.55 0-1 .45-1 1s.45 1 1 1h2.5V21c0 .55.45 1 1 1s1-.45 1-1v-2.5H21c.55 0 1-.45 1-1s-.45-1-1-1h-2.5V14Z" fill="white"></path></svg>